<svg xmlns="http://www.w3.org/2000/svg"  viewBox="0 0 16 16" width="16px" height="16px"><path d="M 8.2480469 0.00390625 C 7.8863325 0.019172452 7.5296067 0.064615865 7.1933594 0.14257812 C 5.497916 0.53635172 4.8706679 1.2602244 4.2089844 2.078125 C 3.9131792 2.4440979 3.6841919 2.9903696 3.5 3.4980469 C 2.7868638 3.8795212 2.2134667 4.6192705 2.2128906 5.6601562 C 2.2128906 6.3353581 2.5507193 6.7974652 3 7.1367188 L 3 10.771484 C 3 11.313713 3.062599 11.804848 3.125 12.201172 C 3.187401 12.597495 3.2457426 12.921702 3.25 13.021484 L 4.25 12.978516 C 4.2382574 12.7033 4.1718803 12.417098 4.1132812 12.044922 C 4.0546822 11.672745 4 11.236255 4 10.771484 L 4 7.6621094 C 4.8471078 7.9465337 5.6773826 7.9749057 5.6757812 7.9746094 C 5.9102113 8.0181184 6.1382197 8.009465 6.5253906 7.984375 C 6.9125616 7.9592759 7.3907499 7.9013141 7.8730469 7.7734375 C 8.3553438 7.6455609 8.8450988 7.4531863 9.2519531 7.1230469 C 9.6588074 6.7929075 9.9739946 6.2864019 9.9921875 5.6757812 C 10.010478 5.0616625 9.9153414 4.5520565 9.6835938 4.140625 C 9.451846 3.7291935 9.0821888 3.4456567 8.6777344 3.28125 C 7.8688255 2.9524366 6.9138229 2.9944249 5.8808594 3.0039062 C 5.5307021 3.0071647 5.1537638 3.0280763 4.7753906 3.0878906 C 4.8582115 2.9255789 4.9456015 2.7574187 4.9863281 2.7070312 C 5.6542789 1.8813839 5.9036281 1.4673337 7.4179688 1.1152344 C 7.9444741 0.99315887 8.6139777 0.96969476 9.21875 1.0371094 C 9.8235223 1.1045244 10.372289 1.2767901 10.626953 1.4453125 C 10.920803 1.6397913 11.37581 2.5503847 11.626953 3.6621094 C 11.878096 4.773834 12 6.0671613 12 7.0253906 C 12 7.7536277 11.93492 9.1821498 11.869141 10.449219 C 11.836251 11.082753 11.803567 11.679138 11.779297 12.134766 C 11.755027 12.590393 11.735241 12.838632 11.738281 13.009766 L 12.738281 12.990234 C 12.738826 13.020864 12.753154 12.641622 12.777344 12.1875 C 12.801534 11.733378 12.834207 11.137419 12.867188 10.501953 C 12.933169 9.2310199 13 7.8121536 13 7.0253906 C 13 6.5138205 12.96765 5.9284323 12.904297 5.3242188 C 12.942892 5.3315431 12.976134 5.3317634 13.013672 5.3398438 C 13.281581 5.397513 13.491474 5.5031007 13.519531 5.5097656 C 13.53217 5.5317355 13.553963 5.5663196 13.570312 5.6171875 C 13.607112 5.731653 13.647812 5.9044529 13.6875 6.1113281 C 13.76688 6.5250786 13.84042 7.0784333 13.894531 7.6699219 C 14.002754 8.8528991 14.035611 10.210037 13.953125 10.931641 C 13.917935 11.239756 13.815123 11.683751 13.71875 12.066406 C 13.67056 12.257734 13.62397 12.434772 13.587891 12.583984 C 13.551811 12.733197 13.518395 12.805238 13.515625 12.992188 L 14.515625 13.007812 C 14.514325 13.093262 14.526024 12.953052 14.558594 12.818359 C 14.591164 12.683665 14.638064 12.506844 14.6875 12.310547 C 14.78638 11.917952 14.898502 11.454807 14.945312 11.044922 C 15.045832 10.165525 15.003155 8.8081478 14.890625 7.578125 C 14.834379 6.9631207 14.759012 6.3862495 14.669922 5.921875 C 14.625377 5.6896877 14.578089 5.4866283 14.521484 5.3105469 C 14.465051 5.1349984 14.432651 4.9915991 14.251953 4.8125 C 13.939862 4.5036481 13.588933 4.4417043 13.224609 4.3632812 C 13.055118 4.3267971 12.9251 4.319595 12.765625 4.296875 C 12.717953 4.008444 12.664677 3.7207932 12.601562 3.4414062 C 12.329455 2.236881 11.986885 1.1468493 11.177734 0.61132812 C 10.687398 0.2868505 10.037306 0.12180415 9.3300781 0.04296875 C 8.9764643 0.00355105 8.6097613 -0.011359952 8.2480469 0.00390625 z M 5.890625 4.0039062 C 6.9276614 3.9943862 7.8076901 4.0065963 8.3007812 4.2070312 C 8.5473225 4.3072497 8.6977476 4.4271346 8.8125 4.6308594 C 8.9272524 4.8345841 9.006897 5.1526032 8.9921875 5.6464844 C 8.9828804 5.9588638 8.8633801 6.1506863 8.6230469 6.3457031 C 8.3827137 6.54072 8.0121874 6.7013922 7.6152344 6.8066406 C 7.2182813 6.9118891 6.7974541 6.9645166 6.4609375 6.9863281 C 6.1244209 7.0081397 5.8034919 6.9821783 5.8574219 6.9921875 C 5.1305853 6.8576625 3.2151892 6.7980904 3.2128906 5.6621094 L 3.2128906 5.6601562 C 3.213934 4.9221014 3.5038147 4.6065515 4.0019531 4.3554688 C 4.5006405 4.1041093 5.2303546 4.0100505 5.890625 4.0039062 z M 13.542969 5.5195312 C 13.542732 5.5192076 13.549279 5.5219309 13.548828 5.5214844 L 13.548828 5.5234375 C 13.542271 5.5169633 13.547737 5.5242655 13.542969 5.5195312 z"/></svg>